<mxfile host="app.diagrams.net" modified="2021-01-19T03:32:22.644Z" agent="5.0 (Windows NT 10.0; Win64; x64) AppleWebKit/537.36 (KHTML, like Gecko) Chrome/87.0.4280.141 Safari/537.36" etag="gXkLUbgDeKU3fEyVhT_a" version="14.2.4" type="github">
  <diagram id="ZCED4uhwCmPLZE3jRu7N" name="第 1 页">
    <mxGraphModel dx="1422" dy="794" grid="0" gridSize="10" guides="1" tooltips="1" connect="1" arrows="1" fold="1" page="1" pageScale="1" pageWidth="827" pageHeight="1169" math="0" shadow="0">
      <root>
        <mxCell id="0" />
        <mxCell id="1" parent="0" />
        <mxCell id="wRc2LoDbwTTGVQEX7Cy5-1" value="C++对象内存布局" style="text;html=1;align=center;verticalAlign=middle;resizable=0;points=[];autosize=1;fontStyle=1" vertex="1" parent="1">
          <mxGeometry x="333" y="39" width="105" height="18" as="geometry" />
        </mxCell>
        <mxCell id="wRc2LoDbwTTGVQEX7Cy5-2" value="vtable ptr" style="rounded=0;whiteSpace=wrap;html=1;" vertex="1" parent="1">
          <mxGeometry x="94" y="107" width="67" height="30" as="geometry" />
        </mxCell>
        <mxCell id="wRc2LoDbwTTGVQEX7Cy5-3" value="m_b" style="rounded=0;whiteSpace=wrap;html=1;" vertex="1" parent="1">
          <mxGeometry x="94" y="137" width="34" height="30" as="geometry" />
        </mxCell>
        <mxCell id="wRc2LoDbwTTGVQEX7Cy5-4" value="m_d" style="rounded=0;whiteSpace=wrap;html=1;" vertex="1" parent="1">
          <mxGeometry x="128" y="137" width="33" height="30" as="geometry" />
        </mxCell>
        <mxCell id="wRc2LoDbwTTGVQEX7Cy5-5" value="Base::print ptr" style="rounded=0;whiteSpace=wrap;html=1;fillColor=#f5f5f5;strokeColor=#666666;fontColor=#333333;" vertex="1" parent="1">
          <mxGeometry x="226" y="121" width="91" height="30" as="geometry" />
        </mxCell>
        <mxCell id="wRc2LoDbwTTGVQEX7Cy5-7" value="Base::show ptr" style="rounded=0;whiteSpace=wrap;html=1;" vertex="1" parent="1">
          <mxGeometry x="317" y="121" width="91" height="30" as="geometry" />
        </mxCell>
        <mxCell id="wRc2LoDbwTTGVQEX7Cy5-8" value="" style="endArrow=classic;html=1;exitX=1;exitY=0.5;exitDx=0;exitDy=0;entryX=0;entryY=0.5;entryDx=0;entryDy=0;" edge="1" parent="1" source="wRc2LoDbwTTGVQEX7Cy5-2" target="wRc2LoDbwTTGVQEX7Cy5-5">
          <mxGeometry width="50" height="50" relative="1" as="geometry">
            <mxPoint x="387" y="324" as="sourcePoint" />
            <mxPoint x="437" y="274" as="targetPoint" />
          </mxGeometry>
        </mxCell>
        <mxCell id="wRc2LoDbwTTGVQEX7Cy5-9" value="Base类对象" style="text;html=1;align=center;verticalAlign=middle;resizable=0;points=[];autosize=1;" vertex="1" parent="1">
          <mxGeometry x="91.5" y="81" width="73" height="18" as="geometry" />
        </mxCell>
        <mxCell id="wRc2LoDbwTTGVQEX7Cy5-10" value="vtable ptr" style="rounded=0;whiteSpace=wrap;html=1;" vertex="1" parent="1">
          <mxGeometry x="94" y="273" width="67" height="30" as="geometry" />
        </mxCell>
        <mxCell id="wRc2LoDbwTTGVQEX7Cy5-13" value="Derive::print ptr" style="rounded=0;whiteSpace=wrap;html=1;fillColor=#dae8fc;strokeColor=#6c8ebf;" vertex="1" parent="1">
          <mxGeometry x="226" y="287" width="91" height="30" as="geometry" />
        </mxCell>
        <mxCell id="wRc2LoDbwTTGVQEX7Cy5-14" value="Base::show ptr" style="rounded=0;whiteSpace=wrap;html=1;" vertex="1" parent="1">
          <mxGeometry x="317" y="287" width="91" height="30" as="geometry" />
        </mxCell>
        <mxCell id="wRc2LoDbwTTGVQEX7Cy5-15" value="" style="endArrow=classic;html=1;exitX=1;exitY=0.5;exitDx=0;exitDy=0;entryX=0;entryY=0.5;entryDx=0;entryDy=0;" edge="1" parent="1" source="wRc2LoDbwTTGVQEX7Cy5-10" target="wRc2LoDbwTTGVQEX7Cy5-13">
          <mxGeometry width="50" height="50" relative="1" as="geometry">
            <mxPoint x="387" y="490" as="sourcePoint" />
            <mxPoint x="437" y="440" as="targetPoint" />
          </mxGeometry>
        </mxCell>
        <mxCell id="wRc2LoDbwTTGVQEX7Cy5-16" value="Derive类对象" style="text;html=1;align=center;verticalAlign=middle;resizable=0;points=[];autosize=1;" vertex="1" parent="1">
          <mxGeometry x="87.5" y="247" width="81" height="18" as="geometry" />
        </mxCell>
        <mxCell id="wRc2LoDbwTTGVQEX7Cy5-17" value="vtable ptr" style="rounded=0;whiteSpace=wrap;html=1;" vertex="1" parent="1">
          <mxGeometry x="100.5" y="441" width="67" height="30" as="geometry" />
        </mxCell>
        <mxCell id="wRc2LoDbwTTGVQEX7Cy5-18" value="m_b" style="rounded=0;whiteSpace=wrap;html=1;" vertex="1" parent="1">
          <mxGeometry x="100.5" y="471" width="67" height="30" as="geometry" />
        </mxCell>
        <mxCell id="wRc2LoDbwTTGVQEX7Cy5-19" value="vtable ptr" style="rounded=0;whiteSpace=wrap;html=1;" vertex="1" parent="1">
          <mxGeometry x="100.5" y="501" width="67" height="30" as="geometry" />
        </mxCell>
        <mxCell id="wRc2LoDbwTTGVQEX7Cy5-20" value="Derive::print ptr" style="rounded=0;whiteSpace=wrap;html=1;fillColor=#dae8fc;strokeColor=#6c8ebf;" vertex="1" parent="1">
          <mxGeometry x="232.5" y="455" width="91" height="30" as="geometry" />
        </mxCell>
        <mxCell id="wRc2LoDbwTTGVQEX7Cy5-21" value="Base::show ptr" style="rounded=0;whiteSpace=wrap;html=1;" vertex="1" parent="1">
          <mxGeometry x="323.5" y="455" width="91" height="30" as="geometry" />
        </mxCell>
        <mxCell id="wRc2LoDbwTTGVQEX7Cy5-22" value="" style="endArrow=classic;html=1;exitX=1;exitY=0.5;exitDx=0;exitDy=0;entryX=0;entryY=0.5;entryDx=0;entryDy=0;" edge="1" source="wRc2LoDbwTTGVQEX7Cy5-17" target="wRc2LoDbwTTGVQEX7Cy5-20" parent="1">
          <mxGeometry width="50" height="50" relative="1" as="geometry">
            <mxPoint x="393.5" y="658" as="sourcePoint" />
            <mxPoint x="443.5" y="608" as="targetPoint" />
          </mxGeometry>
        </mxCell>
        <mxCell id="wRc2LoDbwTTGVQEX7Cy5-23" value="MultiDerive类对象" style="text;html=1;align=center;verticalAlign=middle;resizable=0;points=[];autosize=1;" vertex="1" parent="1">
          <mxGeometry x="82" y="415" width="106" height="18" as="geometry" />
        </mxCell>
        <mxCell id="wRc2LoDbwTTGVQEX7Cy5-24" value="m_d" style="rounded=0;whiteSpace=wrap;html=1;" vertex="1" parent="1">
          <mxGeometry x="100.5" y="531" width="67" height="30" as="geometry" />
        </mxCell>
        <mxCell id="wRc2LoDbwTTGVQEX7Cy5-26" value="Base2::msg ptr" style="rounded=0;whiteSpace=wrap;html=1;" vertex="1" parent="1">
          <mxGeometry x="232.5" y="511" width="91" height="30" as="geometry" />
        </mxCell>
        <mxCell id="wRc2LoDbwTTGVQEX7Cy5-29" value="" style="endArrow=classic;html=1;exitX=1;exitY=0.5;exitDx=0;exitDy=0;entryX=0;entryY=0.5;entryDx=0;entryDy=0;" edge="1" parent="1" source="wRc2LoDbwTTGVQEX7Cy5-19" target="wRc2LoDbwTTGVQEX7Cy5-26">
          <mxGeometry width="50" height="50" relative="1" as="geometry">
            <mxPoint x="387" y="424" as="sourcePoint" />
            <mxPoint x="437" y="374" as="targetPoint" />
          </mxGeometry>
        </mxCell>
        <mxCell id="wRc2LoDbwTTGVQEX7Cy5-30" value="m_b" style="rounded=0;whiteSpace=wrap;html=1;" vertex="1" parent="1">
          <mxGeometry x="94" y="303" width="34" height="30" as="geometry" />
        </mxCell>
        <mxCell id="wRc2LoDbwTTGVQEX7Cy5-31" value="m_d" style="rounded=0;whiteSpace=wrap;html=1;" vertex="1" parent="1">
          <mxGeometry x="128" y="303" width="33" height="30" as="geometry" />
        </mxCell>
      </root>
    </mxGraphModel>
  </diagram>
</mxfile>
